<svg width="1316" height="189" viewBox="0 0 1316 189" fill="none" xmlns="http://www.w3.org/2000/svg">
<path d="M53.096 3.21599C66.92 3.21599 78.2693 4.83732 87.144 8.07999C96.1893 11.3227 102.931 16.3573 107.368 23.184C111.805 29.84 114.024 38.3733 114.024 48.784C114.024 55.44 113 61.584 110.952 67.216C109.075 72.6773 106.344 77.2853 102.76 81.04C99.176 84.7947 94.9947 87.44 90.216 88.976V90.256C96.5307 92.1333 101.651 95.0347 105.576 98.96C109.501 102.715 112.403 107.408 114.28 113.04C116.157 118.501 117.096 124.987 117.096 132.496C117.096 143.419 114.707 152.891 109.928 160.912C105.149 168.933 98.3227 175.163 89.448 179.6C80.744 183.867 70.3333 186 58.216 186H0.104001V3.21599H53.096ZM53.096 74.384C58.5573 74.384 62.7387 72.848 65.64 69.776C68.5413 66.5333 69.992 61.7547 69.992 55.44C69.992 49.808 68.5413 45.6267 65.64 42.896C62.7387 39.9947 58.3013 38.544 52.328 38.544H43.624V74.384H53.096ZM43.624 108.432V149.904H54.888C60.8613 149.904 65.2987 148.197 68.2 144.784C71.1013 141.2 72.552 135.909 72.552 128.912C72.552 124.475 71.8693 120.805 70.504 117.904C69.1387 114.832 67.0907 112.528 64.36 110.992C61.6293 109.285 58.3013 108.432 54.376 108.432H43.624ZM212.742 186L205.83 150.416H166.406L159.494 186H112.39L156.934 3.21599H214.278L259.334 186H212.742ZM191.75 72.08C190.897 67.472 190.129 63.0347 189.446 58.768C188.763 54.5013 188.166 50.4053 187.654 46.48C187.142 42.384 186.63 38.6293 186.118 35.216C185.777 38.4587 185.35 42.0427 184.838 45.968C184.326 49.8933 183.643 53.9893 182.79 58.256C182.107 62.5227 181.339 66.96 180.486 71.568L172.806 113.04H199.174L191.75 72.08ZM325.45 38.032C321.183 38.032 317.343 39.3973 313.93 42.128C310.687 44.688 307.957 48.4427 305.738 53.392C303.519 58.3413 301.813 64.4 300.618 71.568C299.423 78.5653 298.826 86.5013 298.826 95.376C298.826 107.664 299.85 117.989 301.898 126.352C304.117 134.544 307.359 140.688 311.626 144.784C315.893 148.88 321.183 150.928 327.498 150.928C333.471 150.928 339.189 149.819 344.65 147.6C350.111 145.381 355.573 142.651 361.034 139.408V178.32C355.231 181.733 348.917 184.293 342.09 186C335.263 187.707 328.095 188.56 320.586 188.56C306.079 188.56 293.791 184.976 283.722 177.808C273.823 170.64 266.314 160.144 261.194 146.32C256.074 132.325 253.514 115.259 253.514 95.12C253.514 80.9547 255.05 68.1547 258.122 56.72C261.365 45.1147 265.887 35.1307 271.69 26.768C277.663 18.4053 284.831 12.0053 293.194 7.56799C301.557 2.95999 311.029 0.655991 321.61 0.655991C329.631 0.655991 337.397 1.67999 344.906 3.728C352.415 5.77599 359.839 9.01866 367.178 13.456L355.658 49.296C350.879 45.8827 346.015 43.152 341.066 41.104C336.117 39.056 330.911 38.032 325.45 38.032ZM501.536 186H453.408L426.784 117.904L416.544 124.816V186H373.024V3.21599H416.544V82.576C417.397 78.992 418.592 75.3227 420.128 71.568C421.835 67.6427 423.797 63.5467 426.016 59.28L455.456 3.21599H502.304L458.272 85.136L501.536 186ZM558.83 78.992H622.574V177.552C613.187 181.307 603.545 184.123 593.646 186C583.918 187.707 573.934 188.56 563.694 188.56C548.675 188.56 535.875 184.891 525.294 177.552C514.883 170.213 506.947 159.547 501.486 145.552C496.025 131.387 493.294 114.235 493.294 94.096C493.294 74.4693 496.366 57.744 502.51 43.92C508.825 29.9253 517.87 19.2587 529.646 11.92C541.422 4.41066 555.587 0.655991 572.142 0.655991C581.699 0.655991 590.489 1.76532 598.51 3.98399C606.702 6.03199 613.785 8.76265 619.758 12.176L607.726 47.76C602.777 44.5173 597.401 42.128 591.598 40.592C585.966 38.8853 579.993 38.032 573.678 38.032C565.998 38.032 559.513 40.2507 554.222 44.688C549.102 49.1253 545.177 55.6107 542.446 64.144C539.886 72.6773 538.606 83.088 538.606 95.376C538.606 107.323 539.63 117.477 541.678 125.84C543.726 134.032 546.798 140.261 550.894 144.528C555.161 148.795 560.281 150.928 566.254 150.928C567.79 150.928 569.326 150.843 570.862 150.672C572.398 150.501 573.934 150.245 575.47 149.904C577.006 149.563 578.457 149.221 579.822 148.88V115.344H558.83V78.992ZM683.7 3.21599C697.865 3.21599 709.641 5.26399 719.028 9.35999C728.415 13.2853 735.412 19.2587 740.02 27.28C744.799 35.1307 747.188 45.1147 747.188 57.232C747.188 64.2293 746.249 70.8 744.372 76.944C742.665 82.9173 739.935 88.3787 736.18 93.328C732.596 98.1067 727.988 102.459 722.356 106.384L760.5 186H712.628L683.956 117.392H678.324V186H634.804V3.21599H683.7ZM683.188 39.568H678.324V83.6H682.932C687.369 83.6 690.953 82.7467 693.684 81.04C696.585 79.1627 698.719 76.432 700.084 72.848C701.62 69.264 702.388 64.8267 702.388 59.536C702.388 55.0987 701.62 51.4293 700.084 48.528C698.719 45.456 696.585 43.2373 693.684 41.872C690.953 40.336 687.455 39.568 683.188 39.568ZM892.832 94.352C892.832 109.712 891.296 123.28 888.224 135.056C885.323 146.661 880.971 156.475 875.168 164.496C869.365 172.517 862.112 178.576 853.408 182.672C844.704 186.597 834.72 188.56 823.456 188.56C812.192 188.56 802.208 186.512 793.504 182.416C784.971 178.32 777.717 172.347 771.744 164.496C765.771 156.475 761.248 146.576 758.176 134.8C755.275 123.024 753.824 109.456 753.824 94.096C753.824 73.7867 756.469 56.72 761.76 42.896C767.051 28.9013 774.901 18.32 785.312 11.152C795.723 3.98399 808.437 0.399994 823.456 0.399994C838.645 0.399994 851.36 3.98399 861.6 11.152C872.011 18.1493 879.776 28.6453 884.896 42.64C890.187 56.464 892.832 73.7013 892.832 94.352ZM799.136 94.352C799.136 106.811 799.989 117.221 801.696 125.584C803.573 133.776 806.304 140.005 809.888 144.272C813.643 148.368 818.165 150.416 823.456 150.416C828.917 150.416 833.44 148.453 837.024 144.528C840.608 140.432 843.253 134.288 844.96 126.096C846.667 117.733 847.52 107.152 847.52 94.352C847.52 75.0667 845.472 60.816 841.376 51.6C837.451 42.384 831.477 37.776 823.456 37.776C818.165 37.776 813.643 39.9093 809.888 44.176C806.304 48.272 803.573 54.5013 801.696 62.864C799.989 71.2267 799.136 81.7227 799.136 94.352ZM1023.93 124.048C1023.93 138.043 1021.54 149.904 1016.76 159.632C1011.98 169.189 1004.98 176.443 995.768 181.392C986.723 186.171 975.544 188.56 962.232 188.56C942.776 188.56 927.843 183.269 917.432 172.688C907.021 162.107 901.816 146.235 901.816 125.072V3.21599H945.336V123.024C945.336 132.923 946.787 140.005 949.688 144.272C952.589 148.368 956.941 150.416 962.744 150.416C966.84 150.416 970.168 149.563 972.728 147.856C975.459 145.979 977.421 143.077 978.616 139.152C979.811 135.056 980.408 129.595 980.408 122.768V3.21599H1023.93V124.048ZM1175.45 186H1124.76L1077.15 72.336H1076.12C1076.47 77.456 1076.72 82.2347 1076.89 86.672C1077.23 91.1093 1077.49 95.2907 1077.66 99.216C1077.83 102.971 1077.92 106.555 1077.92 109.968C1078.09 113.211 1078.17 116.112 1078.17 118.672V186H1037.72V3.21599H1088.16L1135.52 113.808H1136.54C1136.37 109.2 1136.11 104.848 1135.77 100.752C1135.6 96.4853 1135.43 92.56 1135.26 88.976C1135.09 85.2213 1134.92 81.7227 1134.75 78.48C1134.75 75.2373 1134.75 72.2507 1134.75 69.52V3.21599H1175.45V186ZM1315.55 90.768C1315.55 110.907 1312.48 128.144 1306.33 142.48C1300.19 156.645 1291.31 167.483 1279.71 174.992C1268.1 182.331 1254.02 186 1237.47 186H1190.36V3.21599H1240.54C1256.58 3.21599 1270.15 6.62932 1281.24 13.456C1292.34 20.112 1300.79 29.9253 1306.59 42.896C1312.56 55.8667 1315.55 71.824 1315.55 90.768ZM1270.49 92.56C1270.49 80.1013 1269.3 70.1173 1266.91 62.608C1264.69 55.0987 1261.28 49.6373 1256.67 46.224C1252.23 42.64 1246.6 40.848 1239.77 40.848H1233.88V148.112H1237.21C1248.82 148.112 1257.27 143.675 1262.56 134.8C1267.85 125.755 1270.49 111.675 1270.49 92.56Z" fill="#EA693E"/>
</svg>
