<svg width="396" height="51" viewBox="0 0 396 51" fill="none" xmlns="http://www.w3.org/2000/svg">
<path d="M18.375 26.8125H27.9062C29.7812 26.8125 31.375 26.25 32.6875 25.125C34 24 34.6562 22.4167 34.6562 20.375C34.6562 18.7917 33.9688 17.375 32.5938 16.125C31.2188 14.875 29.6562 14.25 27.9062 14.25H12.1562V48H9.90625V12H27.9062C30.3021 12 32.3958 12.8438 34.1875 14.5312C36 16.2188 36.9062 18.1667 36.9062 20.375C36.9062 23.0208 36.0312 25.1354 34.2812 26.7188C32.5312 28.2812 30.4062 29.0625 27.9062 29.0625H18.375V26.8125ZM18.375 31.3125H27.9062C30.9896 31.3125 33.6354 30.2917 35.8438 28.25C38.0521 26.2083 39.1562 23.5833 39.1562 20.375C39.1562 17.5625 38.0312 15.0938 35.7812 12.9688C33.5312 10.8229 30.9062 9.75 27.9062 9.75H7.65625V48H5.40625V7.5H27.9062C31.5312 7.5 34.6875 8.79167 37.375 11.375C40.0625 13.9375 41.4062 16.9375 41.4062 20.375C41.4062 24.125 40.0729 27.2604 37.4062 29.7812C34.7604 32.3021 31.5938 33.5625 27.9062 33.5625H18.375V31.3125ZM18.375 35.8125H27.9062C30.7188 35.8125 33.3229 35.1458 35.7188 33.8125C38.1354 32.4792 40.0625 30.625 41.5 28.25C42.9375 25.875 43.6562 23.25 43.6562 20.375C43.6562 17.7292 42.9375 15.2396 41.5 12.9062C40.0833 10.5729 38.1562 8.71875 35.7188 7.34375C33.3021 5.94792 30.6979 5.25 27.9062 5.25H3.15625V48H0.90625V3H27.9062C30.2812 3 32.5729 3.46875 34.7812 4.40625C37.0104 5.34375 38.9375 6.60417 40.5625 8.1875C42.1875 9.75 43.4792 11.6042 44.4375 13.75C45.4167 15.875 45.9062 18.0833 45.9062 20.375C45.9062 23.0625 45.4271 25.5312 44.4688 27.7812C43.5104 30.0312 42.2083 31.9062 40.5625 33.4062C38.9167 34.8854 37 36.0312 34.8125 36.8438C32.6458 37.6562 30.3438 38.0625 27.9062 38.0625H18.375V35.8125ZM16.6562 48H14.4062V16.5H27.9062C29.1354 16.5 30.1875 16.8854 31.0625 17.6562C31.9583 18.4062 32.4062 19.3125 32.4062 20.375C32.4062 23.1667 30.9062 24.5625 27.9062 24.5625H18.375V22.3125H27.9062C29.4062 22.3125 30.1562 21.6667 30.1562 20.375C30.1562 19.9167 29.9375 19.5312 29.5 19.2188C29.0625 18.9062 28.5312 18.75 27.9062 18.75H16.6562V48ZM68.1562 19.1562C66.4062 20.9062 65.5312 23.0208 65.5312 25.5C65.5312 27.9792 66.4062 30.1042 68.1562 31.875C69.9271 33.625 72.0521 34.5 74.5312 34.5C77.0104 34.5 79.125 33.625 80.875 31.875C82.6458 30.1042 83.5312 27.9792 83.5312 25.5C83.5312 23.0208 82.6458 20.9062 80.875 19.1562C79.125 17.3854 77.0104 16.5 74.5312 16.5C72.0521 16.5 69.9271 17.3854 68.1562 19.1562ZM66.5625 33.4688C64.375 31.2604 63.2812 28.6042 63.2812 25.5C63.2812 22.3958 64.375 19.75 66.5625 17.5625C68.7708 15.3542 71.4271 14.25 74.5312 14.25C77.6354 14.25 80.2812 15.3542 82.4688 17.5625C84.6771 19.75 85.7812 22.3958 85.7812 25.5C85.7812 28.6042 84.6771 31.2604 82.4688 33.4688C80.2812 35.6562 77.6354 36.75 74.5312 36.75C71.4271 36.75 68.7708 35.6562 66.5625 33.4688ZM64.9688 15.9688C62.3438 18.6146 61.0312 21.7917 61.0312 25.5C61.0312 29.2083 62.3438 32.3854 64.9688 35.0312C67.6146 37.6771 70.8021 39 74.5312 39C78.2604 39 81.4375 37.6771 84.0625 35.0312C86.7083 32.3854 88.0312 29.2083 88.0312 25.5C88.0312 21.7917 86.7083 18.6146 84.0625 15.9688C81.4375 13.3229 78.2604 12 74.5312 12C70.8021 12 67.6146 13.3229 64.9688 15.9688ZM60.875 33.4062C59.4792 30.9896 58.7812 28.3542 58.7812 25.5C58.7812 22.6458 59.4792 20.0104 60.875 17.5938C62.2917 15.1771 64.2083 13.2708 66.625 11.875C69.0417 10.4583 71.6771 9.75 74.5312 9.75C77.3854 9.75 80.0208 10.4583 82.4375 11.875C84.8542 13.2708 86.7604 15.1771 88.1562 17.5938C89.5729 20.0104 90.2812 22.6458 90.2812 25.5C90.2812 28.3542 89.5729 30.9896 88.1562 33.4062C86.7604 35.8229 84.8542 37.7396 82.4375 39.1562C80.0208 40.5521 77.3854 41.25 74.5312 41.25C71.6771 41.25 69.0417 40.5521 66.625 39.1562C64.2083 37.7396 62.2917 35.8229 60.875 33.4062ZM57.9375 18.5312C57 20.7396 56.5312 23.0625 56.5312 25.5C56.5312 27.9375 57 30.2708 57.9375 32.5C58.8958 34.7083 60.1771 36.625 61.7812 38.25C63.4062 39.8542 65.3229 41.1354 67.5312 42.0938C69.7604 43.0312 72.0938 43.5 74.5312 43.5C76.9688 43.5 79.2917 43.0312 81.5 42.0938C83.7292 41.1354 85.6458 39.8542 87.25 38.25C88.875 36.625 90.1562 34.7083 91.0938 32.5C92.0521 30.2708 92.5312 27.9375 92.5312 25.5C92.5312 23.0625 92.0521 20.7396 91.0938 18.5312C90.1562 16.3021 88.875 14.3854 87.25 12.7812C85.6458 11.1562 83.7292 9.875 81.5 8.9375C79.2917 7.97917 76.9688 7.5 74.5312 7.5C72.0938 7.5 69.7604 7.97917 67.5312 8.9375C65.3229 9.875 63.4062 11.1562 61.7812 12.7812C60.1771 14.3854 58.8958 16.3021 57.9375 18.5312ZM55.875 33.375C54.8125 30.875 54.2812 28.25 54.2812 25.5C54.2812 22.75 54.8125 20.125 55.875 17.625C56.9583 15.125 58.3958 12.9792 60.1875 11.1875C62 9.375 64.1562 7.9375 66.6562 6.875C69.1562 5.79167 71.7812 5.25 74.5312 5.25C77.2812 5.25 79.9062 5.79167 82.4062 6.875C84.9062 7.9375 87.0521 9.375 88.8438 11.1875C90.6562 12.9792 92.0938 15.125 93.1562 17.625C94.2396 20.125 94.7812 22.75 94.7812 25.5C94.7812 28.25 94.2396 30.875 93.1562 33.375C92.0938 35.875 90.6562 38.0312 88.8438 39.8438C87.0521 41.6354 84.9062 43.0729 82.4062 44.1562C79.9062 45.2188 77.2812 45.75 74.5312 45.75C71.7812 45.75 69.1562 45.2188 66.6562 44.1562C64.1562 43.0729 62 41.6354 60.1875 39.8438C58.3958 38.0312 56.9583 35.875 55.875 33.375ZM53.8125 16.7812C52.625 19.5521 52.0312 22.4583 52.0312 25.5C52.0312 28.5417 52.625 31.4583 53.8125 34.25C55 37.0208 56.5938 39.4167 58.5938 41.4375C60.6146 43.4375 63.0104 45.0312 65.7812 46.2188C68.5729 47.4062 71.4896 48 74.5312 48C77.5729 48 80.4792 47.4062 83.25 46.2188C86.0417 45.0312 88.4375 43.4375 90.4375 41.4375C92.4583 39.4167 94.0625 37.0208 95.25 34.25C96.4375 31.4583 97.0312 28.5417 97.0312 25.5C97.0312 22.4583 96.4375 19.5521 95.25 16.7812C94.0625 13.9896 92.4583 11.5938 90.4375 9.59375C88.4375 7.57292 86.0417 5.96875 83.25 4.78125C80.4792 3.59375 77.5729 3 74.5312 3C71.4896 3 68.5729 3.59375 65.7812 4.78125C63.0104 5.96875 60.6146 7.57292 58.5938 9.59375C56.5938 11.5938 55 13.9896 53.8125 16.7812ZM51.75 35.125C50.4375 32.0625 49.7812 28.8542 49.7812 25.5C49.7812 22.1458 50.4375 18.9479 51.75 15.9062C53.0625 12.8438 54.8229 10.2083 57.0312 8C59.2396 5.79167 61.8646 4.03125 64.9062 2.71875C67.9688 1.40625 71.1771 0.75 74.5312 0.75C77.8854 0.75 81.0833 1.40625 84.125 2.71875C87.1875 4.03125 89.8229 5.79167 92.0312 8C94.2396 10.2083 96 12.8438 97.3125 15.9062C98.625 18.9479 99.2812 22.1458 99.2812 25.5C99.2812 28.8542 98.625 32.0625 97.3125 35.125C96 38.1667 94.2396 40.7917 92.0312 43C89.8229 45.2083 87.1875 46.9688 84.125 48.2812C81.0833 49.5938 77.8854 50.25 74.5312 50.25C71.1771 50.25 67.9688 49.5938 64.9062 48.2812C61.8646 46.9688 59.2396 45.2083 57.0312 43C54.8229 40.7917 53.0625 38.1667 51.75 35.125ZM121.344 26.5H134.906C136.698 26.5 138.219 25.9375 139.469 24.8125C140.719 23.6875 141.344 22.1042 141.344 20.0625C141.344 18.5625 140.688 17.2188 139.375 16.0312C138.083 14.8438 136.594 14.25 134.906 14.25H115.594V48H113.344V12H134.906C137.219 12 139.24 12.8125 140.969 14.4375C142.719 16.0625 143.594 17.9375 143.594 20.0625C143.594 22.7083 142.75 24.8229 141.062 26.4062C139.375 27.9688 137.323 28.75 134.906 28.75H121.344V26.5ZM121.344 31H134.906C137.906 31 140.479 29.9792 142.625 27.9375C144.771 25.8958 145.844 23.2708 145.844 20.0625C145.844 17.3333 144.75 14.9375 142.562 12.875C140.375 10.7917 137.823 9.75 134.906 9.75H111.094V48H108.844V7.5H134.906C138.448 7.5 141.531 8.76042 144.156 11.2812C146.781 13.7812 148.094 16.7083 148.094 20.0625C148.094 23.8125 146.792 26.9479 144.188 29.4688C141.604 31.9896 138.51 33.25 134.906 33.25H121.344V31ZM121.344 35.5H134.906C137.677 35.5 140.24 34.8333 142.594 33.5C144.948 32.1667 146.823 30.3125 148.219 27.9375C149.635 25.5625 150.344 22.9375 150.344 20.0625C150.344 17.4583 149.646 15.0208 148.25 12.75C146.854 10.4583 144.958 8.63542 142.562 7.28125C140.188 5.92708 137.635 5.25 134.906 5.25H106.594V48H104.344V3H134.906C137.26 3 139.521 3.46875 141.688 4.40625C143.875 5.32292 145.76 6.55208 147.344 8.09375C148.927 9.61458 150.198 11.4271 151.156 13.5312C152.115 15.6354 152.594 17.8125 152.594 20.0625C152.594 23.7083 151.76 26.8958 150.094 29.625C148.427 32.3333 146.188 34.3958 143.375 35.8125L148.094 48H145.688L141.219 36.7188C140.656 36.9062 140 37.0938 139.25 37.2812L143.469 48H141.062L136.938 37.6562C136.292 37.7188 135.615 37.75 134.906 37.75L138.875 48H136.5L132.562 37.75H130.531L134.312 48H131.938L128.125 37.75H121.344V35.5ZM120.094 48H117.844V16.5H134.906C136.073 16.5 137.062 16.8542 137.875 17.5625C138.688 18.25 139.094 19.0833 139.094 20.0625C139.094 22.8542 137.698 24.25 134.906 24.25H121.344V22H134.906C136.198 22 136.844 21.3542 136.844 20.0625C136.844 19.7083 136.646 19.4062 136.25 19.1562C135.875 18.8854 135.427 18.75 134.906 18.75H120.094V48ZM165.562 15.4688H167.812V48H165.562V15.4688ZM156.562 5.25V3H190.312V5.25H156.562ZM156.562 9.75V7.5H190.312V9.75H156.562ZM156.562 14.25V12H190.312V14.25H156.562ZM179.062 15.4688H181.312V48H179.062V15.4688ZM174.562 15.4688H176.812V48H174.562V15.4688ZM170.062 15.4688H172.312V48H170.062V15.4688ZM211.031 48H208.781V3H230.25V5.25H211.031V7.5H230.25V9.75H211.031V12H230.25V14.25H211.031V21.125H228.75V23.375H211.031V25.625H228.75V27.875H211.031V30.125H228.75V32.375H211.031V48ZM206.531 48H204.281V3H206.531V48ZM202.031 48H199.781V3H202.031V48ZM197.531 48H195.281V3H197.531V48ZM252.531 19.1562C250.781 20.9062 249.906 23.0208 249.906 25.5C249.906 27.9792 250.781 30.1042 252.531 31.875C254.302 33.625 256.427 34.5 258.906 34.5C261.385 34.5 263.5 33.625 265.25 31.875C267.021 30.1042 267.906 27.9792 267.906 25.5C267.906 23.0208 267.021 20.9062 265.25 19.1562C263.5 17.3854 261.385 16.5 258.906 16.5C256.427 16.5 254.302 17.3854 252.531 19.1562ZM250.938 33.4688C248.75 31.2604 247.656 28.6042 247.656 25.5C247.656 22.3958 248.75 19.75 250.938 17.5625C253.146 15.3542 255.802 14.25 258.906 14.25C262.01 14.25 264.656 15.3542 266.844 17.5625C269.052 19.75 270.156 22.3958 270.156 25.5C270.156 28.6042 269.052 31.2604 266.844 33.4688C264.656 35.6562 262.01 36.75 258.906 36.75C255.802 36.75 253.146 35.6562 250.938 33.4688ZM249.344 15.9688C246.719 18.6146 245.406 21.7917 245.406 25.5C245.406 29.2083 246.719 32.3854 249.344 35.0312C251.99 37.6771 255.177 39 258.906 39C262.635 39 265.812 37.6771 268.438 35.0312C271.083 32.3854 272.406 29.2083 272.406 25.5C272.406 21.7917 271.083 18.6146 268.438 15.9688C265.812 13.3229 262.635 12 258.906 12C255.177 12 251.99 13.3229 249.344 15.9688ZM245.25 33.4062C243.854 30.9896 243.156 28.3542 243.156 25.5C243.156 22.6458 243.854 20.0104 245.25 17.5938C246.667 15.1771 248.583 13.2708 251 11.875C253.417 10.4583 256.052 9.75 258.906 9.75C261.76 9.75 264.396 10.4583 266.812 11.875C269.229 13.2708 271.135 15.1771 272.531 17.5938C273.948 20.0104 274.656 22.6458 274.656 25.5C274.656 28.3542 273.948 30.9896 272.531 33.4062C271.135 35.8229 269.229 37.7396 266.812 39.1562C264.396 40.5521 261.76 41.25 258.906 41.25C256.052 41.25 253.417 40.5521 251 39.1562C248.583 37.7396 246.667 35.8229 245.25 33.4062ZM242.312 18.5312C241.375 20.7396 240.906 23.0625 240.906 25.5C240.906 27.9375 241.375 30.2708 242.312 32.5C243.271 34.7083 244.552 36.625 246.156 38.25C247.781 39.8542 249.698 41.1354 251.906 42.0938C254.135 43.0312 256.469 43.5 258.906 43.5C261.344 43.5 263.667 43.0312 265.875 42.0938C268.104 41.1354 270.021 39.8542 271.625 38.25C273.25 36.625 274.531 34.7083 275.469 32.5C276.427 30.2708 276.906 27.9375 276.906 25.5C276.906 23.0625 276.427 20.7396 275.469 18.5312C274.531 16.3021 273.25 14.3854 271.625 12.7812C270.021 11.1562 268.104 9.875 265.875 8.9375C263.667 7.97917 261.344 7.5 258.906 7.5C256.469 7.5 254.135 7.97917 251.906 8.9375C249.698 9.875 247.781 11.1562 246.156 12.7812C244.552 14.3854 243.271 16.3021 242.312 18.5312ZM240.25 33.375C239.188 30.875 238.656 28.25 238.656 25.5C238.656 22.75 239.188 20.125 240.25 17.625C241.333 15.125 242.771 12.9792 244.562 11.1875C246.375 9.375 248.531 7.9375 251.031 6.875C253.531 5.79167 256.156 5.25 258.906 5.25C261.656 5.25 264.281 5.79167 266.781 6.875C269.281 7.9375 271.427 9.375 273.219 11.1875C275.031 12.9792 276.469 15.125 277.531 17.625C278.615 20.125 279.156 22.75 279.156 25.5C279.156 28.25 278.615 30.875 277.531 33.375C276.469 35.875 275.031 38.0312 273.219 39.8438C271.427 41.6354 269.281 43.0729 266.781 44.1562C264.281 45.2188 261.656 45.75 258.906 45.75C256.156 45.75 253.531 45.2188 251.031 44.1562C248.531 43.0729 246.375 41.6354 244.562 39.8438C242.771 38.0312 241.333 35.875 240.25 33.375ZM238.188 16.7812C237 19.5521 236.406 22.4583 236.406 25.5C236.406 28.5417 237 31.4583 238.188 34.25C239.375 37.0208 240.969 39.4167 242.969 41.4375C244.99 43.4375 247.385 45.0312 250.156 46.2188C252.948 47.4062 255.865 48 258.906 48C261.948 48 264.854 47.4062 267.625 46.2188C270.417 45.0312 272.812 43.4375 274.812 41.4375C276.833 39.4167 278.438 37.0208 279.625 34.25C280.812 31.4583 281.406 28.5417 281.406 25.5C281.406 22.4583 280.812 19.5521 279.625 16.7812C278.438 13.9896 276.833 11.5938 274.812 9.59375C272.812 7.57292 270.417 5.96875 267.625 4.78125C264.854 3.59375 261.948 3 258.906 3C255.865 3 252.948 3.59375 250.156 4.78125C247.385 5.96875 244.99 7.57292 242.969 9.59375C240.969 11.5938 239.375 13.9896 238.188 16.7812ZM236.125 35.125C234.812 32.0625 234.156 28.8542 234.156 25.5C234.156 22.1458 234.812 18.9479 236.125 15.9062C237.438 12.8438 239.198 10.2083 241.406 8C243.615 5.79167 246.24 4.03125 249.281 2.71875C252.344 1.40625 255.552 0.75 258.906 0.75C262.26 0.75 265.458 1.40625 268.5 2.71875C271.562 4.03125 274.198 5.79167 276.406 8C278.615 10.2083 280.375 12.8438 281.688 15.9062C283 18.9479 283.656 22.1458 283.656 25.5C283.656 28.8542 283 32.0625 281.688 35.125C280.375 38.1667 278.615 40.7917 276.406 43C274.198 45.2083 271.562 46.9688 268.5 48.2812C265.458 49.5938 262.26 50.25 258.906 50.25C255.552 50.25 252.344 49.5938 249.281 48.2812C246.24 46.9688 243.615 45.2083 241.406 43C239.198 40.7917 237.438 38.1667 236.125 35.125ZM288.719 3H290.969V48H288.719V3ZM302.219 3H304.469V36.75H321.062V39H304.469V41.25H321.062V43.5H304.469V45.75H321.062V48H302.219V3ZM297.719 3H299.969V48H297.719V3ZM293.219 3H295.469V48H293.219V3ZM339.531 3H341.781V48H339.531V3ZM335.031 3H337.281V48H335.031V3ZM330.531 3H332.781V48H330.531V3ZM326.031 3H328.281V48H326.031V3ZM364.844 19.1562C363.094 20.9062 362.219 23.0208 362.219 25.5C362.219 27.9792 363.094 30.1042 364.844 31.875C366.615 33.625 368.74 34.5 371.219 34.5C373.698 34.5 375.812 33.625 377.562 31.875C379.333 30.1042 380.219 27.9792 380.219 25.5C380.219 23.0208 379.333 20.9062 377.562 19.1562C375.812 17.3854 373.698 16.5 371.219 16.5C368.74 16.5 366.615 17.3854 364.844 19.1562ZM363.25 33.4688C361.062 31.2604 359.969 28.6042 359.969 25.5C359.969 22.3958 361.062 19.75 363.25 17.5625C365.458 15.3542 368.115 14.25 371.219 14.25C374.323 14.25 376.969 15.3542 379.156 17.5625C381.365 19.75 382.469 22.3958 382.469 25.5C382.469 28.6042 381.365 31.2604 379.156 33.4688C376.969 35.6562 374.323 36.75 371.219 36.75C368.115 36.75 365.458 35.6562 363.25 33.4688ZM361.656 15.9688C359.031 18.6146 357.719 21.7917 357.719 25.5C357.719 29.2083 359.031 32.3854 361.656 35.0312C364.302 37.6771 367.49 39 371.219 39C374.948 39 378.125 37.6771 380.75 35.0312C383.396 32.3854 384.719 29.2083 384.719 25.5C384.719 21.7917 383.396 18.6146 380.75 15.9688C378.125 13.3229 374.948 12 371.219 12C367.49 12 364.302 13.3229 361.656 15.9688ZM357.562 33.4062C356.167 30.9896 355.469 28.3542 355.469 25.5C355.469 22.6458 356.167 20.0104 357.562 17.5938C358.979 15.1771 360.896 13.2708 363.312 11.875C365.729 10.4583 368.365 9.75 371.219 9.75C374.073 9.75 376.708 10.4583 379.125 11.875C381.542 13.2708 383.448 15.1771 384.844 17.5938C386.26 20.0104 386.969 22.6458 386.969 25.5C386.969 28.3542 386.26 30.9896 384.844 33.4062C383.448 35.8229 381.542 37.7396 379.125 39.1562C376.708 40.5521 374.073 41.25 371.219 41.25C368.365 41.25 365.729 40.5521 363.312 39.1562C360.896 37.7396 358.979 35.8229 357.562 33.4062ZM354.625 18.5312C353.688 20.7396 353.219 23.0625 353.219 25.5C353.219 27.9375 353.688 30.2708 354.625 32.5C355.583 34.7083 356.865 36.625 358.469 38.25C360.094 39.8542 362.01 41.1354 364.219 42.0938C366.448 43.0312 368.781 43.5 371.219 43.5C373.656 43.5 375.979 43.0312 378.188 42.0938C380.417 41.1354 382.333 39.8542 383.938 38.25C385.562 36.625 386.844 34.7083 387.781 32.5C388.74 30.2708 389.219 27.9375 389.219 25.5C389.219 23.0625 388.74 20.7396 387.781 18.5312C386.844 16.3021 385.562 14.3854 383.938 12.7812C382.333 11.1562 380.417 9.875 378.188 8.9375C375.979 7.97917 373.656 7.5 371.219 7.5C368.781 7.5 366.448 7.97917 364.219 8.9375C362.01 9.875 360.094 11.1562 358.469 12.7812C356.865 14.3854 355.583 16.3021 354.625 18.5312ZM352.562 33.375C351.5 30.875 350.969 28.25 350.969 25.5C350.969 22.75 351.5 20.125 352.562 17.625C353.646 15.125 355.083 12.9792 356.875 11.1875C358.688 9.375 360.844 7.9375 363.344 6.875C365.844 5.79167 368.469 5.25 371.219 5.25C373.969 5.25 376.594 5.79167 379.094 6.875C381.594 7.9375 383.74 9.375 385.531 11.1875C387.344 12.9792 388.781 15.125 389.844 17.625C390.927 20.125 391.469 22.75 391.469 25.5C391.469 28.25 390.927 30.875 389.844 33.375C388.781 35.875 387.344 38.0312 385.531 39.8438C383.74 41.6354 381.594 43.0729 379.094 44.1562C376.594 45.2188 373.969 45.75 371.219 45.75C368.469 45.75 365.844 45.2188 363.344 44.1562C360.844 43.0729 358.688 41.6354 356.875 39.8438C355.083 38.0312 353.646 35.875 352.562 33.375ZM350.5 16.7812C349.312 19.5521 348.719 22.4583 348.719 25.5C348.719 28.5417 349.312 31.4583 350.5 34.25C351.688 37.0208 353.281 39.4167 355.281 41.4375C357.302 43.4375 359.698 45.0312 362.469 46.2188C365.26 47.4062 368.177 48 371.219 48C374.26 48 377.167 47.4062 379.938 46.2188C382.729 45.0312 385.125 43.4375 387.125 41.4375C389.146 39.4167 390.75 37.0208 391.938 34.25C393.125 31.4583 393.719 28.5417 393.719 25.5C393.719 22.4583 393.125 19.5521 391.938 16.7812C390.75 13.9896 389.146 11.5938 387.125 9.59375C385.125 7.57292 382.729 5.96875 379.938 4.78125C377.167 3.59375 374.26 3 371.219 3C368.177 3 365.26 3.59375 362.469 4.78125C359.698 5.96875 357.302 7.57292 355.281 9.59375C353.281 11.5938 351.688 13.9896 350.5 16.7812ZM348.438 35.125C347.125 32.0625 346.469 28.8542 346.469 25.5C346.469 22.1458 347.125 18.9479 348.438 15.9062C349.75 12.8438 351.51 10.2083 353.719 8C355.927 5.79167 358.552 4.03125 361.594 2.71875C364.656 1.40625 367.865 0.75 371.219 0.75C374.573 0.75 377.771 1.40625 380.812 2.71875C383.875 4.03125 386.51 5.79167 388.719 8C390.927 10.2083 392.688 12.8438 394 15.9062C395.312 18.9479 395.969 22.1458 395.969 25.5C395.969 28.8542 395.312 32.0625 394 35.125C392.688 38.1667 390.927 40.7917 388.719 43C386.51 45.2083 383.875 46.9688 380.812 48.2812C377.771 49.5938 374.573 50.25 371.219 50.25C367.865 50.25 364.656 49.5938 361.594 48.2812C358.552 46.9688 355.927 45.2083 353.719 43C351.51 40.7917 349.75 38.1667 348.438 35.125Z" fill="white"/>
</svg>
