<svg width="760" height="214" viewBox="0 0 760 214" fill="none" xmlns="http://www.w3.org/2000/svg">
<path d="M117.079 147.549C117.079 160.309 114.372 171.716 108.959 181.769C103.739 191.629 96.2956 199.362 86.6289 204.969C76.9623 210.576 65.459 213.379 52.1189 213.379C46.1256 213.379 40.3256 212.992 34.7189 212.219C29.1123 211.446 23.5056 210.092 17.8989 208.159C12.4856 206.226 6.78228 203.616 0.788946 200.329V150.449C8.90895 155.862 17.2223 160.116 25.7289 163.209C34.2356 166.302 42.0656 167.849 49.2189 167.849C53.2789 167.849 56.5656 167.172 59.079 165.819C61.7856 164.466 63.7189 162.629 64.8789 160.309C66.2323 157.989 66.9089 155.379 66.9089 152.479C66.9089 149.386 66.3289 146.582 65.1689 144.069C64.2023 141.362 61.8823 138.462 58.2089 135.369C54.7289 132.082 49.2189 128.119 41.6789 123.479C35.6856 119.612 30.1756 115.746 25.1489 111.879C20.3156 108.012 16.1589 103.759 12.6789 99.119C9.19895 94.2857 6.49228 88.8723 4.55895 82.879C2.81895 76.6923 1.94895 69.4423 1.94895 61.129C1.94895 48.7557 4.36561 38.1223 9.19895 29.229C14.0323 20.1423 21.0889 13.0857 30.3689 8.059C39.8423 3.03233 51.3456 0.518993 64.8789 0.518993C73.3856 0.518993 81.989 1.77566 90.689 4.289C99.389 6.60899 108.186 10.2823 117.079 15.309L104.029 58.519C96.8756 54.0723 90.2056 50.7857 84.019 48.659C77.8323 46.339 72.129 45.179 66.9089 45.179C63.4289 45.179 60.5289 45.759 58.2089 46.919C56.0823 48.079 54.4389 49.7223 53.2789 51.849C52.3123 53.7823 51.8289 56.0057 51.8289 58.519C51.8289 62.1923 52.4089 65.3823 53.5689 68.089C54.9223 70.6023 57.5323 73.4057 61.399 76.499C65.2656 79.399 71.0656 83.2657 78.799 88.099C87.1123 93.1257 94.0723 98.539 99.679 104.339C105.479 109.946 109.829 116.229 112.729 123.189C115.629 130.149 117.079 138.269 117.079 147.549ZM287.048 210.479H232.528L202.368 133.339L190.768 141.169V210.479H141.468V3.41899H190.768V93.319C191.735 89.259 193.088 85.1023 194.828 80.849C196.762 76.4023 198.985 71.7623 201.498 66.929L234.848 3.41899H287.918L238.038 96.219L287.048 210.479ZM379.778 210.479H291.618V184.089L311.048 173.939V39.959L291.618 29.809V3.41899H379.778V29.809L360.348 39.959V173.939L379.778 184.089V210.479ZM403.998 210.479V3.41899H453.298V168.139H507.238V210.479H403.998ZM528.041 210.479V3.41899H577.341V168.139H631.281V210.479H528.041ZM759.384 147.549C759.384 160.309 756.677 171.716 751.264 181.769C746.044 191.629 738.6 199.362 728.934 204.969C719.267 210.576 707.764 213.379 694.424 213.379C688.43 213.379 682.63 212.992 677.024 212.219C671.417 211.446 665.81 210.092 660.204 208.159C654.79 206.226 649.087 203.616 643.094 200.329V150.449C651.214 155.862 659.527 160.116 668.034 163.209C676.54 166.302 684.37 167.849 691.524 167.849C695.584 167.849 698.87 167.172 701.384 165.819C704.09 164.466 706.024 162.629 707.184 160.309C708.537 157.989 709.214 155.379 709.214 152.479C709.214 149.386 708.634 146.582 707.474 144.069C706.507 141.362 704.187 138.462 700.514 135.369C697.034 132.082 691.524 128.119 683.984 123.479C677.99 119.612 672.48 115.746 667.454 111.879C662.62 108.012 658.464 103.759 654.984 99.119C651.504 94.2857 648.797 88.8723 646.864 82.879C645.124 76.6923 644.254 69.4423 644.254 61.129C644.254 48.7557 646.67 38.1223 651.504 29.229C656.337 20.1423 663.394 13.0857 672.674 8.059C682.147 3.03233 693.65 0.518993 707.184 0.518993C715.69 0.518993 724.294 1.77566 732.994 4.289C741.694 6.60899 750.49 10.2823 759.384 15.309L746.334 58.519C739.18 54.0723 732.51 50.7857 726.324 48.659C720.137 46.339 714.434 45.179 709.214 45.179C705.734 45.179 702.834 45.759 700.514 46.919C698.387 48.079 696.744 49.7223 695.584 51.849C694.617 53.7823 694.134 56.0057 694.134 58.519C694.134 62.1923 694.714 65.3823 695.874 68.089C697.227 70.6023 699.837 73.4057 703.704 76.499C707.57 79.399 713.37 83.2657 721.104 88.099C729.417 93.1257 736.377 98.539 741.984 104.339C747.784 109.946 752.134 116.229 755.034 123.189C757.934 130.149 759.384 138.269 759.384 147.549Z" fill="#EA693E"/>
</svg>
