<svg width="856" height="214" viewBox="0 0 856 214" fill="none" xmlns="http://www.w3.org/2000/svg">
<path d="M235.249 3.93999L196.099 211H139.549L125.339 133.57C124.565 129.123 123.792 124.58 123.019 119.94C122.245 115.3 121.472 110.66 120.699 106.02C120.119 101.187 119.539 96.3533 118.959 91.52C118.572 86.6867 118.185 81.8533 117.799 77.02C117.605 80.8867 117.219 85.2367 116.639 90.07C116.059 94.71 115.479 99.5433 114.899 104.57C114.319 109.597 113.642 114.623 112.869 119.65C112.095 124.483 111.322 129.027 110.549 133.28L96.0486 211H40.0786L0.348633 3.93999H48.4886L63.2786 94.13C63.8586 97.61 64.4386 101.767 65.0186 106.6C65.792 111.24 66.4686 116.267 67.0486 121.68C67.822 126.9 68.4986 132.217 69.0786 137.63C69.6586 143.043 70.2386 148.263 70.8186 153.29C71.3986 148.07 72.0753 142.753 72.8486 137.34C73.622 131.733 74.3953 126.32 75.1686 121.1C75.942 115.88 76.7153 111.047 77.4886 106.6C78.4553 101.96 79.2286 97.9967 79.8086 94.71L98.0786 3.93999H137.809L154.339 94.71C155.112 98.3833 155.885 102.637 156.659 107.47C157.625 112.303 158.399 117.427 158.979 122.84C159.752 128.06 160.429 133.28 161.009 138.5C161.782 143.72 162.459 148.65 163.039 153.29C163.425 147.877 164.005 141.883 164.779 135.31C165.552 128.737 166.422 121.97 167.389 115.01C168.549 107.857 169.709 100.993 170.869 94.42L185.949 3.93999H235.249ZM402.205 107.18C402.205 124.58 400.465 139.95 396.985 153.29C393.698 166.437 388.768 177.553 382.195 186.64C375.621 195.727 367.405 202.59 357.545 207.23C347.685 211.677 336.375 213.9 323.615 213.9C310.855 213.9 299.545 211.58 289.685 206.94C280.018 202.3 271.801 195.533 265.035 186.64C258.268 177.553 253.145 166.34 249.665 153C246.378 139.66 244.735 124.29 244.735 106.89C244.735 83.8833 247.731 64.55 253.725 48.89C259.718 33.0367 268.611 21.05 280.405 12.93C292.198 4.80999 306.601 0.749993 323.615 0.749993C340.821 0.749993 355.225 4.80999 366.825 12.93C378.618 20.8567 387.415 32.7467 393.215 48.6C399.208 64.26 402.205 83.7867 402.205 107.18ZM296.065 107.18C296.065 121.293 297.031 133.087 298.965 142.56C301.091 151.84 304.185 158.897 308.245 163.73C312.498 168.37 317.621 170.69 323.615 170.69C329.801 170.69 334.925 168.467 338.985 164.02C343.045 159.38 346.041 152.42 347.975 143.14C349.908 133.667 350.875 121.68 350.875 107.18C350.875 85.3333 348.555 69.19 343.915 58.75C339.468 48.31 332.701 43.09 323.615 43.09C317.621 43.09 312.498 45.5067 308.245 50.34C304.185 54.98 301.091 62.0367 298.965 71.51C297.031 80.9833 296.065 92.8733 296.065 107.18ZM486.042 3.93999C502.089 3.93999 515.429 6.25999 526.062 10.9C536.695 15.3467 544.622 22.1133 549.842 31.2C555.255 40.0933 557.962 51.4033 557.962 65.13C557.962 73.0567 556.899 80.5 554.772 87.46C552.839 94.2267 549.745 100.413 545.492 106.02C541.432 111.433 536.212 116.363 529.832 120.81L573.042 211H518.812L486.332 133.28H479.952V211H430.652V3.93999H486.042ZM485.462 45.12H479.952V95H485.172C490.199 95 494.259 94.0333 497.352 92.1C500.639 89.9733 503.055 86.88 504.602 82.82C506.342 78.76 507.212 73.7333 507.212 67.74C507.212 62.7133 506.342 58.5567 504.602 55.27C503.055 51.79 500.639 49.2767 497.352 47.73C494.259 45.99 490.295 45.12 485.462 45.12ZM734.259 211H679.739L649.579 133.86L637.979 141.69V211H588.679V3.93999H637.979V93.84C638.946 89.78 640.299 85.6233 642.039 81.37C643.973 76.9233 646.196 72.2833 648.709 67.45L682.059 3.93999H735.129L685.249 96.74L734.259 211ZM855.989 148.07C855.989 160.83 853.282 172.237 847.869 182.29C842.649 192.15 835.206 199.883 825.539 205.49C815.872 211.097 804.369 213.9 791.029 213.9C785.036 213.9 779.236 213.513 773.629 212.74C768.022 211.967 762.416 210.613 756.809 208.68C751.396 206.747 745.692 204.137 739.699 200.85V150.97C747.819 156.383 756.132 160.637 764.639 163.73C773.146 166.823 780.976 168.37 788.129 168.37C792.189 168.37 795.476 167.693 797.989 166.34C800.696 164.987 802.629 163.15 803.789 160.83C805.142 158.51 805.819 155.9 805.819 153C805.819 149.907 805.239 147.103 804.079 144.59C803.112 141.883 800.792 138.983 797.119 135.89C793.639 132.603 788.129 128.64 780.589 124C774.596 120.133 769.086 116.267 764.059 112.4C759.226 108.533 755.069 104.28 751.589 99.64C748.109 94.8067 745.402 89.3933 743.469 83.4C741.729 77.2133 740.859 69.9633 740.859 61.65C740.859 49.2767 743.276 38.6433 748.109 29.75C752.942 20.6633 759.999 13.6067 769.279 8.58C778.752 3.55332 790.256 1.03999 803.789 1.03999C812.296 1.03999 820.899 2.29666 829.599 4.80999C838.299 7.12999 847.096 10.8033 855.989 15.83L842.939 59.04C835.786 54.5933 829.116 51.3067 822.929 49.18C816.742 46.86 811.039 45.7 805.819 45.7C802.339 45.7 799.439 46.28 797.119 47.44C794.992 48.6 793.349 50.2433 792.189 52.37C791.222 54.3033 790.739 56.5267 790.739 59.04C790.739 62.7133 791.319 65.9033 792.479 68.61C793.832 71.1233 796.442 73.9267 800.309 77.02C804.176 79.92 809.976 83.7867 817.709 88.62C826.022 93.6467 832.982 99.06 838.589 104.86C844.389 110.467 848.739 116.75 851.639 123.71C854.539 130.67 855.989 138.79 855.989 148.07Z" fill="#EA693E"/>
</svg>
